<svg width="48" height="46" viewBox="0 0 48 46" fill="none" xmlns="http://www.w3.org/2000/svg">
<path d="M32.6586 0.0710716C32.2199 0.152653 31.5213 0.299492 31.1313 0.413704C28.3854 1.16423 25.2495 3.57896 23.5435 6.25475C23.2023 6.80949 22.8773 7.25002 22.8285 7.25002C22.7798 7.25002 22.3086 6.64633 21.7562 5.91212C20.0826 3.62791 17.6779 1.91476 15.2732 1.31107C13.9246 0.968441 11.6174 1.00107 10.1226 1.37634C5.32937 2.61633 1.60856 6.69528 0.292465 12.1774C0.0649923 13.1074 0 14.0374 0 16.1584C0.0162481 18.6221 0.0649923 19.1116 0.438698 20.58C1.49482 24.5774 2.81092 26.9105 6.02804 30.4674C8.14029 32.7842 10.3013 34.7095 17.5479 40.7137C18.8965 41.8232 20.8138 43.4711 21.8374 44.3684L23.6734 46L24.7458 45.4453C30.1564 42.6226 38.3455 36.0963 41.7251 31.9032C43.9185 29.1784 46.1283 25.2463 47.0382 22.4563C48.1105 19.1605 48.3055 14.8205 47.5256 11.6716C47.0869 9.89317 45.8683 7.36423 44.6172 5.6837C42.8137 3.22002 39.6616 0.984756 37.0781 0.332127C35.8758 0.0384407 33.6985 -0.0920868 32.6586 0.0710716ZM38.0855 1.47423C41.1076 2.43686 44.2435 5.4716 45.7383 8.8816C46.7132 11.1495 47.1357 14.3474 46.697 16.4358C45.9658 19.9763 42.1313 23.6637 33.731 28.9174C31.1963 30.5163 24.0309 34.5137 23.7384 34.5137C23.2997 34.5137 17.1255 29.3742 12.2673 24.9853C10.9675 23.8105 9.40764 22.4074 8.77396 21.869C8.15653 21.3142 6.51548 19.8947 5.16689 18.7037L2.68093 16.5337V14.6084C2.68093 9.51791 5.0369 5.96107 9.50512 4.31318C13.0959 2.9916 16.768 3.75844 19.6602 6.45054C20.83 7.5437 20.8463 7.52739 19.8876 6.3037C18.8315 4.94949 16.3131 3.44844 14.412 3.04055C11.7311 2.46949 8.30277 3.18739 5.81681 4.81897L5.0369 5.32475L5.84931 4.57423C6.7917 3.70949 9.11517 2.50212 10.6425 2.09423C12.2835 1.6537 14.6395 1.71897 16.1181 2.24107C18.1491 2.95897 19.9201 4.34581 21.7074 6.58107C22.5523 7.65791 22.6336 7.82107 22.4873 8.21265C22.3249 8.62054 22.3249 8.63686 22.6498 8.34317C22.9585 8.06581 22.9748 8.06581 23.2347 8.4737L23.511 8.89791L23.9172 8.27791C24.5183 7.36423 26.1919 5.70002 27.313 4.88423C28.6779 3.90528 30.4814 3.07318 31.9275 2.76318C33.341 2.45318 35.5995 2.53476 36.8506 2.92633C39.1416 3.66055 41.3838 5.22686 43.0249 7.28265C45.7871 10.7253 46.5182 14.1516 45.2671 17.8063C45.0072 18.5895 44.8609 19.1442 44.9422 19.0626C45.2509 18.7526 45.8846 16.6316 46.0633 15.2937C46.5832 11.4595 44.9747 7.51107 41.7088 4.47633C39.7753 2.69791 37.8255 1.7516 35.3396 1.39265C34.6734 1.29476 34.1047 1.18055 34.056 1.14791C34.0235 1.09897 34.6084 1.06633 35.3883 1.06633C36.4282 1.06633 37.1106 1.16423 38.0855 1.47423ZM7.65284 22.44C8.82271 23.4679 11.6336 25.9642 13.9084 27.9874C18.1978 31.8053 20.7813 33.9753 22.3736 35.0847L23.316 35.7374L23.2997 38.1847C23.2835 39.5226 23.2347 41.35 23.1698 42.2474L23.0723 43.8626L21.4475 42.4105C20.5538 41.6111 18.8965 40.11 17.7591 39.0658C16.6218 38.0216 14.5095 36.2595 13.0472 35.1337C10.1713 32.9147 7.76658 30.549 6.66171 28.8195C4.82568 25.9642 3.18462 21.6732 2.74592 18.6058L2.63219 17.79L4.07827 19.1769C4.87442 19.9437 6.48298 21.4121 7.65284 22.44ZM44.3735 25.0832C43.3336 27.2532 41.3189 30.1737 39.6128 32.0011C39.1904 32.4579 38.9141 32.7026 39.0116 32.5721C40.6689 30.2879 42.6025 27.0084 43.3011 25.3442C43.7073 24.3816 43.9673 24.0063 44.4222 23.6963C44.7472 23.4842 45.0234 23.3537 45.0559 23.4353C45.0884 23.5005 44.7797 24.2511 44.3735 25.0832ZM41.5138 26.6658C41.5138 27.0247 38.1342 31.9847 36.3469 34.2526C34.3972 36.7326 33.1623 37.9237 30.5464 39.9142C29.0678 41.04 25.5745 43.3568 25.4932 43.2753C25.3957 43.1937 25.7207 36.2595 25.8344 35.7211C25.8832 35.4926 26.2406 35.199 26.7931 34.9053C27.703 34.4321 28.2717 34.4974 27.5405 34.9868C26.1756 35.9005 25.9807 36.3247 26.6143 37.0426C27.313 37.8747 28.4504 37.1568 28.4016 35.9005C28.3691 34.9216 28.7916 34.5626 32.6749 32.2295C35.7133 30.4021 36.6882 29.9453 35.5833 30.859C33.9585 32.2132 33.2598 32.9147 32.1224 34.3179C30.1727 36.749 28.9541 38.4295 29.0516 38.5274C29.1653 38.6579 30.8551 37.7442 32.6099 36.6021C33.8935 35.7863 35.0146 34.6605 35.0146 34.22C35.0146 34.0895 35.3883 33.5837 35.827 33.1105C36.4282 32.4742 36.6394 32.1153 36.6394 31.7726C36.6394 31.3647 36.7694 31.2016 37.3543 30.859C38.1342 30.4021 38.9629 29.5047 38.8329 29.2926C38.7354 29.1295 38.0042 29.3579 37.663 29.6516C37.5493 29.7332 37.3706 29.7821 37.2568 29.7495C37.0619 29.6842 41.1076 26.5353 41.4001 26.519C41.4651 26.519 41.5138 26.5842 41.5138 26.6658ZM35.4695 32.8332C35.5345 33.0453 34.9334 33.6979 34.6896 33.6979C34.3159 33.6979 34.3159 33.1595 34.6896 32.8495C35.0796 32.5395 35.3558 32.5232 35.4695 32.8332ZM34.1697 35.1011C33.5523 35.6558 33.1623 35.7863 32.9836 35.4926C32.7399 35.1011 33.0811 34.7258 33.8447 34.579C34.2672 34.4974 34.6409 34.4484 34.6896 34.4811C34.7384 34.5137 34.4947 34.7911 34.1697 35.1011Z" fill="#8CA7D4"/>
<path d="M35.6644 3.77481C40.5551 5.08007 43.5447 9.64849 42.5698 14.3311C42.4236 15.0164 42.1636 15.9301 42.0012 16.3216C41.6275 17.219 40.4251 19.0137 40.2139 19.0137C40.1326 19.0137 38.9465 17.3495 37.5817 15.3101C34.592 10.8559 34.1696 10.3011 33.8609 10.2359C33.6009 10.1869 28.0766 13.4501 26.338 14.6574C25.7856 15.049 25.2656 15.408 25.1519 15.4732C25.0382 15.5385 25.2656 14.7227 25.6394 13.6622C26.2405 11.949 26.2893 11.6716 26.1105 11.2801C25.8993 10.7906 25.0057 10.3338 21.6748 8.99586C19.5138 8.13112 19.4163 8.13112 15.6955 8.50638L13.1608 8.75112L11.341 10.5948C10.3337 11.6227 9.44002 12.6343 9.35878 12.8627C9.24505 13.1401 9.29379 13.6622 9.50502 14.6248C11.0648 21.6732 11.0811 21.7711 11.9097 22.2116C12.1535 22.3422 13.2421 22.9622 14.3469 23.5822C15.4356 24.2185 16.4917 24.7243 16.6704 24.7243C16.9304 24.7243 16.9629 24.8059 16.8816 25.1159C16.7517 25.6706 17.0441 26.5516 17.824 27.8732C18.6527 29.2927 19.7738 30.4022 21.8536 31.8216L23.4946 32.9637L24.567 32.3927C25.9806 31.6748 27.8003 30.4674 29.3277 29.2764C39.2877 21.4774 40.2789 20.629 41.6437 18.6385C43.236 16.3053 43.8372 14.6574 43.8372 12.569C43.8372 9.40375 41.9849 6.59744 38.6703 4.73744C37.6467 4.16639 35.7132 3.51375 35.112 3.53007C34.9332 3.53007 35.177 3.64428 35.6644 3.77481ZM21.3336 9.86059C23.9658 10.9211 25.1032 11.4759 25.1032 11.7206C25.1032 11.8511 24.177 12.928 23.0397 14.1353C21.886 15.3427 20.6187 16.7295 20.1962 17.219L19.4163 18.1164V17.5127C19.4163 16.9906 19.5138 16.8438 20.1962 16.3543C21.0574 15.7016 22.5035 14.2332 23.3159 13.1564C23.9983 12.2753 23.7546 12.3732 21.7073 13.8743C20.9437 14.429 20.0663 15.0164 19.7738 15.1632C19.1239 15.4895 19.0264 15.718 19.2376 16.289C19.3676 16.6316 19.3676 16.7295 19.1889 16.7295C18.6202 16.7295 10.3174 13.2216 10.3174 12.9932C10.3174 12.928 11.0161 12.1938 11.861 11.3453L13.3883 9.81165L15.9555 9.4527C17.3691 9.24059 18.7989 9.11007 19.1401 9.15902C19.4651 9.19165 20.4562 9.51796 21.3336 9.86059ZM33.5522 11.7369C33.5522 12.0632 32.9347 12.5038 29.7989 14.4127C26.4843 16.4195 26.1918 16.5664 25.9481 16.4195C25.8343 16.3543 26.0618 16.0769 26.598 15.6853C27.4916 15.0164 33.2272 11.5085 33.4384 11.5085C33.5034 11.5085 33.5522 11.6227 33.5522 11.7369ZM36.7693 15.9464C37.9229 17.6759 38.979 19.3237 39.1253 19.6011C39.3852 20.1069 39.369 20.1232 38.8653 20.5964C38.4103 21.0206 35.5507 23.3211 34.852 23.8106C34.722 23.8922 35.2095 23.4027 35.9569 22.7011C36.688 21.9995 37.2405 21.3469 37.1755 21.2653C37.1267 21.1674 37.143 21.1185 37.2242 21.1674C37.3055 21.2327 37.6629 21.0206 38.0041 20.7269L38.6378 20.1885L37.403 18.508C34.2021 14.1516 33.5522 13.2706 33.5522 13.2053C33.5522 13.0911 34.4458 12.6832 34.5433 12.7485C34.6083 12.7811 35.5994 14.2332 36.7693 15.9464ZM33.3734 14.6248C33.6821 15.0816 34.6895 16.4848 35.6319 17.7574L37.3217 20.0743L36.9318 20.3843C36.2656 20.9227 31.5861 24.2511 31.3587 24.3327C31.2449 24.3816 31.0337 24.2511 30.9037 24.039C28.6452 20.3353 27.0529 17.4311 27.1667 17.2516C27.3454 16.9416 32.4473 13.7927 32.7398 13.7927C32.7885 13.7927 33.0647 14.168 33.3734 14.6248ZM12.5109 14.5106C12.9659 14.6248 13.9082 15.0001 14.6232 15.3427C16.378 16.1585 18.3602 16.8927 18.8477 16.8927C19.2214 16.8927 19.2539 16.958 19.2539 17.6595C19.2539 18.3122 19.1239 18.6711 18.474 19.699C17.1904 21.8037 16.2642 23.0927 16.053 23.0927C15.9393 23.0927 15.0456 22.6522 14.0707 22.0974C12.4297 21.2001 12.2672 21.0695 12.121 20.5148C11.9585 19.9437 10.8049 14.4943 10.8049 14.3474C10.8049 14.2006 11.731 14.2985 12.5109 14.5106ZM23.7383 18.3611C22.9584 19.5032 22.7147 19.7643 22.5685 19.6174C22.406 19.4543 23.5921 17.4637 23.9658 17.268C24.177 17.1538 24.3883 17.1048 24.437 17.1538C24.4695 17.1864 24.1608 17.7411 23.7383 18.3611ZM26.9392 19.2911C29.1814 23.158 30.6275 25.9806 30.6275 26.5027C30.6275 27.3185 30.2051 27.1064 29.4739 25.948C29.1164 25.3606 28.7427 24.9201 28.6777 24.969C28.5965 25.018 28.4828 24.969 28.4178 24.8711C28.3528 24.7406 28.369 24.7243 28.4828 24.7895C28.7752 24.969 28.7102 24.6264 28.4015 24.3816C28.1741 24.1859 28.1416 24.1859 28.2715 24.3816C28.3528 24.5285 28.3365 24.5774 28.2228 24.4959C28.1253 24.4306 28.0766 24.2837 28.1253 24.1532C28.1903 24.0227 28.1091 23.8595 27.9628 23.8106C27.8328 23.7616 27.2154 22.8643 26.6305 21.8364C26.0293 20.8085 25.2981 19.6664 25.0057 19.3074C24.567 18.7853 24.4857 18.6059 24.6157 18.3611C24.9244 17.7901 25.0382 17.888 25.7531 19.1443C26.3868 20.2537 28.2553 23.2069 28.4503 23.419C28.694 23.6637 28.1091 22.5216 26.7767 20.2048C25.8668 18.6222 25.3144 17.4637 25.3631 17.3169C25.4119 17.1701 25.5256 17.0885 25.5906 17.1374C25.6556 17.1864 26.273 18.149 26.9392 19.2911ZM22.1785 18.1001C22.1785 18.1327 22.0648 18.4264 21.9348 18.7364C21.8048 19.0627 21.6911 19.5195 21.6911 19.7643C21.6911 20.1232 21.6586 20.1722 21.4473 19.9927C21.1061 19.7153 21.1386 19.1932 21.5286 18.5569C21.7886 18.1327 22.1785 17.8553 22.1785 18.1001ZM24.5995 19.5685C24.7132 19.699 24.7457 19.9764 24.6807 20.2211C24.5995 20.5637 24.7457 20.8574 25.4769 21.8201C25.9806 22.4727 26.728 23.5985 27.1342 24.3164C27.5566 25.0343 28.1416 25.9153 28.4503 26.2906C28.759 26.6495 29.0027 27.0085 29.0027 27.0574C29.0027 27.2043 28.0928 27.6611 27.8166 27.6611C27.7029 27.6611 27.3616 27.3185 27.0692 26.8943C26.6142 26.2416 26.5655 26.1274 26.793 25.9969C27.4266 25.638 26.7605 24.088 25.9643 24.0716C25.7693 24.0553 25.2656 23.4353 24.5345 22.3095C23.9171 21.3469 23.3809 20.4659 23.3484 20.3516C23.2834 20.0906 23.9333 19.3401 24.2258 19.3401C24.3233 19.3401 24.502 19.438 24.5995 19.5685ZM22.5685 22.1301C23.3159 23.2395 23.4621 23.7127 22.8934 23.2395C22.3897 22.8316 21.3499 21.298 21.4473 21.1348C21.6261 20.8411 21.7561 20.9716 22.5685 22.1301ZM19.5463 21.7385C19.6438 22.4727 18.5714 23.419 17.6453 23.419C17.3041 23.419 17.3041 23.4027 17.5478 22.799C18.0515 21.559 19.4163 20.8248 19.5463 21.7385ZM36.4768 21.6895C36.4768 21.7222 35.9244 22.1627 35.2582 22.6685C34.592 23.1743 34.0396 23.7127 34.0396 23.8432C34.0396 24.0227 34.1371 24.0716 34.3321 24.0064C34.6895 23.8759 34.0071 24.4469 32.3011 25.7032C31.5536 26.2416 30.9525 26.6169 30.9525 26.5516C30.9525 26.1927 33.0972 24.1043 34.657 22.9295C36.3793 21.6406 36.4768 21.559 36.4768 21.6895ZM21.0899 22.8316C21.1711 23.0437 20.7812 23.2559 20.245 23.2559C20.0663 23.2559 20.0825 23.1743 20.31 22.9295C20.6512 22.5543 20.9762 22.5053 21.0899 22.8316ZM24.6482 23.6148C24.8269 23.9737 25.4119 25.5237 25.4119 25.7032C25.4281 25.7522 25.0869 25.279 24.697 24.659C24.2908 24.039 23.9658 23.468 23.9658 23.3864C23.9658 23.109 24.4532 23.2722 24.6482 23.6148ZM21.1061 24.9364C20.7487 25.328 20.115 26.0948 19.6601 26.6495C19.2214 27.2043 18.7827 27.6285 18.6852 27.6122C18.474 27.5306 17.3041 25.3606 17.3041 25.018C17.3041 24.8059 17.5316 24.7243 18.409 24.6264C19.0101 24.5774 19.8225 24.4632 20.2287 24.398C21.7886 24.1369 21.8048 24.1532 21.1061 24.9364ZM22.9097 24.8059C24.2258 25.589 24.372 25.7522 25.5419 27.5632L26.5817 29.1622L27.2154 29.0643C27.5566 29.0153 27.9791 28.9174 28.1416 28.8685C28.7915 28.6237 28.0441 29.1459 26.3218 30.0922C23.8683 31.4464 23.8033 31.4464 22.4547 30.4185C21.0249 29.3253 20.4725 28.428 20.6187 27.3674C20.6837 26.7637 21.7561 24.2348 21.9348 24.2348C21.951 24.2348 22.3897 24.4959 22.9097 24.8059Z" fill="#8CA7D4"/>
<path d="M20.4726 10.9374C19.6602 11.7369 20.1963 12.569 21.5449 12.569C22.7473 12.569 23.2997 11.7695 22.6498 10.97C22.1786 10.3663 21.0412 10.35 20.4726 10.9374Z" fill="#8CA7D4"/>
<path d="M12.0886 11.3126C11.5687 11.8511 11.455 12.0632 11.5362 12.3568C11.7312 13.0258 12.0561 13.2053 13.1285 13.2705C14.0384 13.3358 14.2009 13.2868 14.6558 12.9116C15.3545 12.3079 15.4195 11.9163 14.8833 11.3126C14.5258 10.9047 14.2821 10.7905 13.5997 10.7253C12.7873 10.66 12.7386 10.6763 12.0886 11.3126ZM13.6972 11.59C13.9572 12.1447 13.9409 12.4874 13.6809 12.4874C13.4535 12.4874 13.0798 11.8347 13.0798 11.4268C13.0798 11.0353 13.5022 11.1495 13.6972 11.59Z" fill="#8CA7D4"/>
<path d="M16.9468 11.0352C16.5243 11.28 16.5893 11.8184 17.0605 12.0305C17.6292 12.2916 18.669 12.0305 18.734 11.6063C18.864 10.9863 17.6617 10.611 16.9468 11.0352Z" fill="#8CA7D4"/>
<path d="M16.5405 13.6295C15.5493 14.2332 15.5493 14.8858 16.5405 15.2611C17.7916 15.718 18.9289 15.2937 18.9289 14.3637C18.9289 13.3522 17.6291 12.9606 16.5405 13.6295Z" fill="#8CA7D4"/>
<path d="M28.8241 16.9905C28.4829 17.3984 28.9541 18.1163 29.5715 18.1163C29.9777 18.1163 30.0589 18.051 30.1077 17.6594C30.1402 17.3984 30.0752 17.0884 29.9615 16.9579C29.7177 16.6479 29.1003 16.6642 28.8241 16.9905Z" fill="#8CA7D4"/>
<path d="M31.1638 18.361C30.7901 18.5079 30.3026 19.291 30.3026 19.7479C30.3026 20.221 30.7576 20.9063 31.1963 21.1021C31.8462 21.4121 32.3986 21.3305 32.8211 20.89C33.5847 20.1394 33.2435 18.7363 32.2199 18.3773C31.635 18.1652 31.635 18.1652 31.1638 18.361Z" fill="#8CA7D4"/>
<path d="M34.5596 19.5357C34.2347 19.862 34.3322 20.2863 34.7871 20.5799C35.1771 20.841 35.2096 20.841 35.5345 20.5147C35.8432 20.221 35.8595 20.1068 35.697 19.7478C35.4858 19.3073 34.9008 19.1931 34.5596 19.5357Z" fill="#8CA7D4"/>
<path d="M12.2673 15.7505C11.8448 16.1747 11.8611 16.55 12.316 17.2353C12.8034 17.9695 13.5184 18.2305 13.8271 17.79C14.412 16.9905 13.7783 15.4405 12.8847 15.4242C12.7222 15.4242 12.446 15.571 12.2673 15.7505Z" fill="#8CA7D4"/>
<path d="M16.1669 16.6969C15.8581 16.9416 15.8094 17.0885 15.9069 17.578C15.9556 17.9043 16.1993 18.3611 16.4431 18.5895C17.5804 19.7316 18.7828 18.2632 17.6779 17.0722C17.0767 16.4359 16.6218 16.3216 16.1669 16.6969Z" fill="#8CA7D4"/>
<path d="M14.5745 20.0253C14.3145 20.2863 14.3308 20.7269 14.6232 21.2979C15.2569 22.5216 16.7355 22.2769 16.4105 21.0042C16.1831 20.0579 15.1107 19.4869 14.5745 20.0253Z" fill="#8CA7D4"/>
<path d="M10.8213 6.05889C9.78144 6.43415 9.00153 6.97257 8.22162 7.86994C7.05176 9.19152 6.46683 10.6599 6.35309 12.6178L6.27185 13.8741L6.43433 12.6831C6.64556 11.0841 7.1005 9.92573 7.9454 8.76731C8.83905 7.55994 10.0901 6.62994 11.455 6.1731C12.2511 5.91205 12.3974 5.81415 12.0237 5.81415C11.7637 5.81415 11.2113 5.92836 10.8213 6.05889Z" fill="#8CA7D4"/>
<path d="M11.4711 7.72317C11.3411 7.96791 11.3736 8.09843 11.6336 8.34317C12.0885 8.75107 12.836 8.49001 12.836 7.91896C12.836 7.56001 12.7547 7.51107 12.2348 7.46212C11.7798 7.42949 11.6011 7.47843 11.4711 7.72317Z" fill="#8CA7D4"/>
<path d="M29.3278 9.04479C28.6616 9.25689 27.6217 9.82795 27.3618 10.1379C27.1668 10.3664 27.2318 10.3664 27.7842 10.089C28.8728 9.53426 30.1402 9.22426 31.4238 9.20795C32.2849 9.19163 32.5449 9.159 32.2524 9.0611C31.7325 8.89795 29.864 8.88163 29.3278 9.04479Z" fill="#8CA7D4"/>
<path d="M37.3705 9.74629C36.5094 10.2521 36.3956 11.1331 37.1106 11.851C37.7117 12.4547 38.3779 12.471 38.9791 11.9163C39.564 11.3779 39.5478 10.6437 38.9304 10.0237C38.4267 9.53418 37.9067 9.43629 37.3705 9.74629ZM38.2642 10.2684C38.3617 10.3989 38.4267 10.6763 38.3942 10.8884C38.3617 11.1821 38.2479 11.2637 37.858 11.2637C37.468 11.2637 37.3543 11.1821 37.3218 10.8721C37.273 10.6273 37.3705 10.3826 37.5493 10.2521C37.923 9.97471 38.0205 9.99103 38.2642 10.2684Z" fill="#8CA7D4"/>
<path d="M3.98082 20.9064C4.71198 24.0064 6.14181 27.2859 7.71788 29.3743C9.1802 31.3485 10.3663 32.4906 12.576 34.0895C15.0458 35.8679 16.6543 37.2385 19.9852 40.3711C21.415 41.709 22.6174 42.7369 22.6499 42.6553C22.8936 41.9537 17.8079 36.7001 13.6484 33.3553C12.1374 32.1316 10.5613 30.7937 10.1551 30.3695L9.44017 29.619H10.0414C11.2112 29.619 11.4387 28.4606 10.61 26.6495C10.2851 25.9643 9.71639 25.3116 7.78287 23.5169C6.45053 22.2606 4.9882 20.8738 4.53325 20.4332L3.68835 19.6338L3.98082 20.9064ZM8.01034 25.1485C8.41654 25.4259 10.0576 28.5748 9.91137 28.8032C9.76513 29.048 8.93648 28.6564 8.4003 28.1016C6.88922 26.519 6.56426 24.1369 8.01034 25.1485Z" fill="#8CA7D4"/>
<path d="M12.5922 29.1295C12.3648 29.5374 12.511 30.0268 13.0309 30.7121C13.5184 31.3811 13.9733 31.6258 14.477 31.5116C15.5332 31.2342 14.3145 28.8032 13.1284 28.8032C12.9335 28.8032 12.6897 28.95 12.5922 29.1295Z" fill="#8CA7D4"/>
<path d="M15.7119 31.6094C15.322 32.001 15.4844 32.8494 16.1019 33.5347C16.7518 34.2526 17.3367 34.4973 17.7104 34.1873C18.2466 33.7305 17.8567 32.5394 16.9305 31.8379C16.3293 31.3647 16.0044 31.3158 15.7119 31.6094Z" fill="#8CA7D4"/>
<path d="M26.3219 39.49C25.8345 39.9631 25.8507 40.4526 26.3382 40.5179C26.8094 40.5831 27.573 39.9468 27.508 39.5063C27.443 38.9842 26.8256 38.9842 26.3219 39.49Z" fill="#8CA7D4"/>
</svg>
