<svg width="400" height="400" viewBox="0 0 400 400" fill="none" xmlns="http://www.w3.org/2000/svg">
<path d="M272.155 10.5887C268.499 11.2644 262.677 12.4806 259.428 13.4266C236.545 19.6429 210.413 39.6432 196.195 61.8057C193.352 66.4004 190.644 70.0491 190.238 70.0491C189.832 70.0491 185.905 65.049 181.301 58.9678C167.355 40.0486 147.316 25.8592 127.277 20.8591C116.038 18.0212 96.8114 18.2915 84.3546 21.3997C44.4114 31.6701 13.4047 65.4544 2.43721 110.861C0.541602 118.563 0 126.266 0 143.834C0.135401 164.24 0.541602 168.294 3.65582 180.456C12.4569 213.565 23.4243 232.889 50.2336 262.349C67.8357 281.539 85.844 297.485 146.233 347.216C157.471 356.405 173.448 370.054 181.978 377.486L197.279 391L206.215 386.405C251.304 363.027 319.545 308.972 347.709 274.241C365.988 251.674 384.402 219.105 391.985 195.997C400.921 168.699 402.546 132.753 396.047 106.671C392.391 91.9413 382.236 70.995 371.81 57.0759C356.781 36.6702 330.513 18.1564 308.984 12.7509C298.965 10.3184 280.821 9.23734 272.155 10.5887ZM317.379 22.2105C342.564 30.1836 368.696 55.3191 381.153 83.5628C389.277 102.347 392.797 128.834 389.141 146.131C383.048 175.456 351.094 205.997 281.092 249.511C259.969 262.755 200.258 295.863 197.82 295.863C194.164 295.863 142.712 253.295 102.227 216.943C91.3954 207.213 78.397 195.592 73.1163 191.132C67.9711 186.537 54.2957 174.78 43.0574 164.915L22.3411 146.942V130.996C22.3411 88.8332 41.9742 59.3732 79.2094 45.7244C109.133 34.7783 139.733 41.1297 163.835 63.4274C173.584 72.4815 173.719 72.3464 165.73 62.2111C156.929 50.9947 135.942 38.5621 120.1 35.1837C97.7592 30.4539 69.1897 36.3999 48.4734 49.9136L41.9742 54.1029L48.7442 47.8866C56.5975 40.7243 75.9597 30.7242 88.6874 27.3457C102.363 23.697 121.996 24.2375 134.317 28.562C151.242 34.508 166.001 45.9947 180.895 64.5085C187.936 73.4275 188.613 74.7789 187.394 78.0222C186.04 81.4006 186.04 81.5357 188.748 79.1033C191.321 76.8059 191.456 76.8059 193.623 80.1844L195.925 83.6979L199.31 78.5627C204.32 70.995 218.266 57.211 227.608 50.4542C238.982 42.3459 254.012 35.4539 266.062 32.8864C277.842 30.3187 296.663 30.9944 307.089 34.2377C326.18 40.3189 344.865 53.2921 358.541 70.3194C381.559 98.8333 387.652 127.212 377.226 157.483C375.06 163.969 373.841 168.564 374.518 167.888C377.091 165.321 382.371 147.753 383.861 136.672C388.194 104.914 374.789 72.2113 347.573 47.0757C331.461 32.3458 315.213 24.5078 294.496 21.5348C288.945 20.724 284.206 19.778 283.8 19.5078C283.529 19.1024 288.403 18.8321 294.903 18.8321C303.568 18.8321 309.255 19.6429 317.379 22.2105ZM63.7737 195.862C73.5225 204.375 96.9468 225.051 115.903 241.809C151.649 273.431 173.177 291.404 186.447 300.593L194.3 305.999L194.164 326.269C194.029 337.351 193.623 352.486 193.081 359.918L192.269 373.297L178.729 361.27C171.282 354.648 157.471 342.215 147.993 333.567C138.515 324.918 120.913 310.323 108.727 300.999C84.7608 282.62 64.7215 263.025 55.5143 248.701C40.214 225.051 26.5385 189.51 22.8827 164.105L21.9349 157.348L33.9856 168.834C40.6202 175.186 54.0248 187.348 63.7737 195.862ZM369.779 217.754C361.113 235.727 344.324 259.917 330.107 275.052C326.586 278.836 324.284 280.863 325.097 279.782C338.908 260.863 355.02 233.7 360.843 219.916C364.228 211.943 366.394 208.835 370.185 206.267C372.893 204.511 375.195 203.43 375.466 204.105C375.737 204.646 373.164 210.862 369.779 217.754ZM345.949 230.862C345.949 233.835 317.785 274.917 302.891 293.701C286.643 314.242 276.353 324.107 254.553 340.594C242.232 349.918 213.121 369.108 212.444 368.432C211.631 367.756 214.339 310.323 215.287 305.864C215.693 303.972 218.672 301.539 223.276 299.107C230.858 295.188 235.597 295.728 229.504 299.782C218.13 307.35 216.506 310.864 221.786 316.81C227.608 323.702 237.086 317.756 236.68 307.35C236.409 299.242 239.93 296.269 272.291 276.944C297.611 261.809 305.735 258.025 296.527 265.593C282.987 276.809 277.165 282.62 267.687 294.242C251.439 314.377 241.284 328.296 242.096 329.107C243.044 330.188 257.126 322.621 271.749 313.161C282.446 306.404 291.788 297.08 291.788 293.431C291.788 292.35 294.903 288.161 298.558 284.242C303.568 278.971 305.328 275.998 305.328 273.16C305.328 269.782 306.412 268.431 311.286 265.593C317.785 261.809 324.691 254.376 323.607 252.619C322.795 251.268 316.702 253.16 313.859 255.592C312.911 256.268 311.421 256.674 310.474 256.403C308.849 255.863 342.564 229.781 345.001 229.646C345.542 229.646 345.949 230.187 345.949 230.862ZM295.58 281.944C296.121 283.701 291.111 289.107 289.08 289.107C285.966 289.107 285.966 284.647 289.08 282.079C292.33 279.512 294.632 279.377 295.58 281.944ZM284.747 300.728C279.602 305.323 276.353 306.404 274.863 303.972C272.832 300.728 275.676 297.62 282.039 296.404C285.56 295.728 288.674 295.323 289.08 295.593C289.487 295.863 287.456 298.161 284.747 300.728Z" fill="black"/>
<path d="M297.204 41.2649C337.96 52.0758 362.874 89.9143 354.75 128.699C353.531 134.374 351.365 141.942 350.011 145.185C346.896 152.618 336.877 167.483 335.117 167.483C334.44 167.483 324.555 153.699 313.182 136.807C288.268 99.9144 284.748 95.3198 282.175 94.7792C280.008 94.3738 233.972 121.401 219.484 131.401C214.881 134.645 210.548 137.618 209.6 138.158C208.652 138.699 210.548 131.942 213.662 123.158C218.672 108.969 219.078 106.671 217.589 103.428C215.829 99.3739 208.382 95.59 180.624 84.5088C162.616 77.3465 161.804 77.3465 130.797 80.4547L109.675 82.4817L94.5096 97.7522C86.1148 106.266 78.6678 114.644 77.9908 116.536C77.043 118.834 77.4492 123.158 79.2094 131.131C92.2078 189.51 92.3432 190.321 99.2487 193.97C101.28 195.051 110.352 200.186 119.559 205.321C128.631 210.592 137.432 214.781 138.921 214.781C141.087 214.781 141.358 215.457 140.681 218.024C139.598 222.619 142.035 229.916 148.534 240.863C155.44 252.62 164.783 261.809 182.114 273.566L195.789 283.025L204.726 278.296C216.506 272.35 231.67 262.349 244.398 252.484C327.399 187.889 335.658 180.862 347.032 164.375C360.301 145.05 365.311 131.401 365.311 114.104C365.311 87.8872 349.875 64.6436 322.253 49.238C313.723 44.5081 297.611 39.1027 292.601 39.2378C291.111 39.2378 293.142 40.1838 297.204 41.2649ZM177.781 91.6711C199.716 100.455 209.194 105.05 209.194 107.077C209.194 108.158 201.476 117.077 191.998 127.077C182.385 137.077 171.823 148.564 168.303 152.618L161.804 160.05V155.05C161.804 150.726 162.616 149.51 168.303 145.456C175.479 140.05 187.53 127.888 194.3 118.969C199.987 111.671 197.956 112.482 180.895 124.915C174.531 129.509 167.22 134.374 164.783 135.591C159.367 138.293 158.554 140.185 160.314 144.915C161.398 147.753 161.398 148.564 159.908 148.564C155.169 148.564 85.9794 119.509 85.9794 117.617C85.9794 117.077 91.8016 110.996 98.8425 103.969L111.57 91.2656L132.963 88.2926C144.743 86.5358 156.659 85.4547 159.502 85.8602C162.21 86.1304 170.469 88.8332 177.781 91.6711ZM279.602 107.212C279.602 109.915 274.457 113.563 248.325 129.374C220.703 145.996 218.266 147.212 216.235 145.996C215.287 145.456 217.183 143.158 221.651 139.915C229.098 134.374 276.894 105.32 278.654 105.32C279.196 105.32 279.602 106.266 279.602 107.212ZM306.412 142.077C316.025 156.402 324.826 170.051 326.045 172.348C328.211 176.537 328.076 176.672 323.878 180.591C320.087 184.105 296.257 203.159 290.434 207.213C289.351 207.889 293.413 203.835 299.642 198.024C305.735 192.213 310.338 186.808 309.797 186.132C309.39 185.321 309.526 184.916 310.203 185.321C310.88 185.862 313.859 184.105 316.702 181.672L321.983 177.213L311.692 163.294C285.018 127.212 279.602 119.915 279.602 119.374C279.602 118.428 287.049 115.05 287.862 115.59C288.403 115.861 296.663 127.888 306.412 142.077ZM278.113 131.131C280.686 134.915 289.08 146.537 296.934 157.077L311.015 176.267L307.766 178.835C302.214 183.294 263.219 210.862 261.323 211.538C260.375 211.943 258.615 210.862 257.532 209.105C238.711 178.429 225.442 154.375 226.39 152.888C227.879 150.321 270.395 124.239 272.832 124.239C273.238 124.239 275.54 127.347 278.113 131.131ZM104.258 130.185C108.05 131.131 115.903 134.239 121.861 137.077C136.484 143.834 153.003 149.915 157.065 149.915C160.179 149.915 160.45 150.456 160.45 156.267C160.45 161.672 159.367 164.645 153.951 173.159C143.254 190.592 135.536 201.267 133.776 201.267C132.828 201.267 125.381 197.619 117.257 193.024C103.581 185.591 102.227 184.51 101.009 179.916C99.6549 175.186 90.0414 130.05 90.0414 128.834C90.0414 127.618 97.7593 128.428 104.258 130.185ZM197.82 162.078C191.321 171.537 189.29 173.699 188.071 172.483C186.717 171.132 196.602 154.645 199.716 153.023C201.476 152.077 203.236 151.672 203.643 152.077C203.913 152.348 201.341 156.942 197.82 162.078ZM224.494 169.78C243.18 201.808 255.23 225.187 255.23 229.511C255.23 236.268 251.71 234.511 245.617 224.916C242.638 220.051 239.524 216.403 238.982 216.808C238.305 217.214 237.357 216.808 236.816 215.997C236.274 214.916 236.41 214.781 237.357 215.322C239.795 216.808 239.253 213.97 236.68 211.943C234.785 210.322 234.514 210.322 235.597 211.943C236.274 213.159 236.139 213.565 235.191 212.889C234.378 212.349 233.972 211.132 234.378 210.051C234.92 208.97 234.243 207.619 233.024 207.213C231.941 206.808 226.796 199.375 221.922 190.862C216.912 182.348 210.819 172.889 208.382 169.916C204.726 165.591 204.049 164.105 205.132 162.078C207.705 157.348 208.652 158.159 214.61 168.564C219.891 177.753 235.462 202.213 237.087 203.97C239.118 205.997 234.243 196.538 223.14 177.348C215.558 164.24 210.954 154.645 211.36 153.429C211.767 152.213 212.714 151.537 213.256 151.942C213.798 152.348 218.943 160.321 224.494 169.78ZM184.822 159.915C184.822 160.186 183.874 162.618 182.791 165.186C181.708 167.888 180.76 171.672 180.76 173.699C180.76 176.672 180.489 177.078 178.729 175.591C175.885 173.294 176.156 168.97 179.406 163.699C181.572 160.186 184.822 157.888 184.822 159.915ZM204.997 172.078C205.944 173.159 206.215 175.456 205.674 177.483C204.997 180.321 206.215 182.754 212.308 190.727C216.506 196.132 222.734 205.457 226.119 211.403C229.639 217.349 234.514 224.646 237.087 227.754C239.659 230.727 241.69 233.7 241.69 234.106C241.69 235.322 234.108 239.106 231.806 239.106C230.858 239.106 228.015 236.268 225.577 232.754C221.786 227.349 221.38 226.403 223.276 225.322C228.556 222.349 223.005 209.511 216.37 209.376C214.745 209.24 210.548 204.105 204.455 194.781C199.31 186.808 194.841 179.51 194.571 178.564C194.029 176.402 199.445 170.186 201.882 170.186C202.695 170.186 204.184 170.997 204.997 172.078ZM188.071 193.294C194.3 202.484 195.519 206.403 190.779 202.484C186.582 199.105 177.916 186.402 178.729 185.051C180.218 182.618 181.301 183.7 188.071 193.294ZM162.887 190.051C163.699 196.132 154.763 203.97 147.045 203.97C144.202 203.97 144.202 203.835 146.233 198.835C150.43 188.564 161.804 182.483 162.887 190.051ZM303.974 189.646C303.974 189.916 299.371 193.565 293.819 197.754C288.268 201.943 283.664 206.403 283.664 207.484C283.664 208.97 284.477 209.376 286.102 208.835C289.08 207.754 283.394 212.484 269.176 222.889C262.948 227.349 257.938 230.457 257.938 229.916C257.938 226.943 275.811 209.646 288.81 199.916C303.162 189.24 303.974 188.564 303.974 189.646ZM175.75 199.105C176.427 200.862 173.177 202.619 168.709 202.619C167.22 202.619 167.355 201.943 169.251 199.916C172.094 196.808 174.802 196.402 175.75 199.105ZM205.403 205.592C206.892 208.565 211.767 221.403 211.767 222.889C211.902 223.295 209.059 219.376 205.809 214.241C202.424 209.105 199.716 204.376 199.716 203.7C199.716 201.402 203.778 202.754 205.403 205.592ZM175.885 216.538C172.907 219.781 167.626 226.133 163.835 230.727C160.179 235.322 156.523 238.836 155.711 238.7C153.951 238.025 144.202 220.051 144.202 217.214C144.202 215.457 146.097 214.781 153.409 213.97C158.419 213.565 165.189 212.619 168.574 212.078C181.572 209.916 181.708 210.051 175.885 216.538ZM190.915 215.457C201.882 221.943 203.101 223.295 212.85 238.295L221.515 251.538L226.796 250.728C229.639 250.322 233.16 249.511 234.514 249.106C239.93 247.079 233.701 251.403 219.349 259.241C198.904 270.458 198.362 270.458 187.124 261.944C175.208 252.89 170.605 245.457 171.823 236.673C172.365 231.673 181.301 210.727 182.791 210.727C182.926 210.727 186.582 212.889 190.915 215.457Z" fill="black"/>
<path d="M170.605 100.59C163.835 107.212 168.303 114.104 179.541 114.104C189.561 114.104 194.164 107.482 188.748 100.86C184.822 95.8602 175.344 95.7251 170.605 100.59Z" fill="black"/>
<path d="M100.738 103.698C96.4052 108.158 95.4574 109.914 96.1344 112.347C97.7593 117.888 100.467 119.374 109.404 119.915C116.986 120.455 118.34 120.05 122.131 116.942C127.954 111.942 128.495 108.698 124.027 103.698C121.048 100.32 119.017 99.3738 113.33 98.8332C106.56 98.2927 106.154 98.4278 100.738 103.698ZM114.143 105.996C116.309 110.59 116.174 113.428 114.007 113.428C112.112 113.428 108.998 108.023 108.998 104.644C108.998 101.401 112.518 102.347 114.143 105.996Z" fill="black"/>
<path d="M141.223 101.401C137.702 103.428 138.244 107.888 142.171 109.644C146.91 111.807 155.575 109.644 156.117 106.131C157.2 100.996 147.18 97.8874 141.223 101.401Z" fill="black"/>
<path d="M137.838 122.888C129.578 127.888 129.578 133.293 137.838 136.401C148.264 140.185 157.742 136.672 157.742 128.969C157.742 120.59 146.91 117.347 137.838 122.888Z" fill="black"/>
<path d="M240.201 150.726C237.357 154.104 241.284 160.05 246.429 160.05C249.814 160.05 250.491 159.51 250.897 156.267C251.168 154.104 250.627 151.537 249.679 150.456C247.648 147.888 242.503 148.023 240.201 150.726Z" fill="black"/>
<path d="M259.698 162.077C256.584 163.294 252.522 169.78 252.522 173.564C252.522 177.483 256.313 183.159 259.969 184.781C265.385 187.348 269.989 186.672 273.509 183.024C279.873 176.807 277.03 165.186 268.499 162.213C263.625 160.456 263.625 160.456 259.698 162.077Z" fill="black"/>
<path d="M287.997 171.807C285.289 174.51 286.101 178.024 289.893 180.456C293.142 182.618 293.413 182.618 296.121 179.916C298.694 177.483 298.829 176.537 297.475 173.564C295.715 169.915 290.84 168.969 287.997 171.807Z" fill="black"/>
<path d="M102.227 140.456C98.707 143.969 98.8424 147.077 102.634 152.753C106.696 158.834 112.653 160.996 115.226 157.348C120.1 150.726 114.82 137.888 107.373 137.753C106.019 137.753 103.717 138.969 102.227 140.456Z" fill="black"/>
<path d="M134.724 148.294C132.151 150.321 131.745 151.537 132.557 155.591C132.963 158.294 134.994 162.078 137.025 163.97C146.503 173.429 156.523 161.267 147.316 151.402C142.306 146.131 138.515 145.185 134.724 148.294Z" fill="black"/>
<path d="M121.454 175.861C119.288 178.024 119.423 181.672 121.861 186.402C127.141 196.537 139.463 194.51 136.755 183.97C134.859 176.132 125.923 171.402 121.454 175.861Z" fill="black"/>
<path d="M90.1768 60.1841C81.5112 63.2922 75.012 67.7517 68.5127 75.1843C58.7639 86.1304 53.8895 98.2928 52.9417 114.509L52.2646 124.915L53.6187 115.05C55.3789 101.806 59.1701 92.2116 66.2109 82.6168C73.6579 72.6167 84.0838 64.9139 95.4574 61.13C102.092 58.9678 103.311 58.157 100.196 58.157C98.0301 58.157 93.4264 59.103 90.1768 60.1841Z" fill="black"/>
<path d="M95.5928 73.9681C94.5096 75.9951 94.7804 77.0762 96.9468 79.1033C100.738 82.4817 106.966 80.3195 106.966 75.5897C106.966 72.6167 106.289 72.2113 101.957 71.8059C98.1654 71.5356 96.676 71.941 95.5928 73.9681Z" fill="black"/>
<path d="M244.398 84.9142C238.847 86.671 230.181 91.4008 228.015 93.9684C226.39 95.8603 226.931 95.8603 231.535 93.563C240.607 88.9683 251.168 86.4007 261.865 86.2656C269.041 86.1304 271.207 85.8602 268.77 85.0493C264.437 83.698 248.866 83.5628 244.398 84.9142Z" fill="black"/>
<path d="M311.421 90.725C304.245 94.9143 303.297 102.212 309.255 108.158C314.265 113.158 319.816 113.293 324.826 108.698C329.701 104.239 329.565 98.1576 324.42 93.0224C320.222 88.9683 315.89 88.1574 311.421 90.725ZM318.868 95.0494C319.681 96.1305 320.222 98.4279 319.952 100.185C319.681 102.617 318.733 103.293 315.483 103.293C312.234 103.293 311.286 102.617 311.015 100.05C310.609 98.0225 311.421 95.9954 312.911 94.9143C316.025 92.617 316.837 92.7521 318.868 95.0494Z" fill="black"/>
<path d="M33.1732 183.159C39.2662 208.835 51.1815 235.998 64.3153 253.295C76.5014 269.647 86.3856 279.106 104.8 292.35C125.381 307.08 138.786 318.431 166.543 344.378C178.458 355.459 188.478 363.973 188.748 363.297C190.779 357.486 148.399 313.972 113.737 286.269C101.144 276.133 88.0104 265.052 84.6254 261.539L78.6678 255.322H83.6776C93.4264 255.322 95.3221 245.727 88.4166 230.727C85.7086 225.051 80.9696 219.646 64.8569 204.781C53.7541 194.375 41.568 182.889 37.7768 179.24L30.736 172.618L33.1732 183.159ZM66.7525 218.295C70.1375 220.592 83.813 246.673 82.5944 248.565C81.3758 250.592 74.4704 247.349 70.0021 242.754C57.4099 229.646 54.7019 209.916 66.7525 218.295Z" fill="black"/>
<path d="M104.935 251.268C103.04 254.647 104.258 258.701 108.591 264.376C112.653 269.917 116.445 271.944 120.642 270.998C129.443 268.701 119.288 248.565 109.404 248.565C107.779 248.565 105.748 249.782 104.935 251.268Z" fill="black"/>
<path d="M130.932 271.809C127.683 275.052 129.037 282.079 134.182 287.755C139.598 293.701 144.472 295.728 147.587 293.161C152.055 289.377 148.805 279.512 141.087 273.701C136.078 269.782 133.37 269.377 130.932 271.809Z" fill="black"/>
<path d="M219.349 337.08C215.287 340.999 215.422 345.053 219.484 345.594C223.411 346.134 229.775 340.864 229.233 337.215C228.692 332.891 223.546 332.891 219.349 337.08Z" fill="black"/>
</svg>
